<svg width="60" height="27" viewBox="0 0 119 27" fill="none" xmlns="http://www.w3.org/2000/svg">
<path d="M1.10828 26C0.988281 26 0.928281 25.94 0.928281 25.82L1.00028 1.088C1.00028 0.991999 1.04828 0.943999 1.14428 0.943999H8.05628C10.2643 0.943999 12.0043 1.616 13.2763 2.96C14.5723 4.304 15.2203 6.128 15.2203 8.432C15.2203 10.136 14.8843 11.612 14.2123 12.86C13.5403 14.108 12.6643 15.068 11.5843 15.74C10.5043 16.412 9.32828 16.748 8.05628 16.748H5.32028V25.82C5.32028 25.94 5.26028 26 5.14028 26H1.10828ZM5.32028 12.392H8.05628C8.82428 12.392 9.48428 12.032 10.0363 11.312C10.6123 10.568 10.9003 9.608 10.9003 8.432C10.9003 7.496 10.6483 6.728 10.1443 6.128C9.64028 5.528 8.94428 5.228 8.05628 5.228L5.32028 5.264V12.392ZM23.5014 26.36C22.2054 26.36 21.0174 26.036 19.9374 25.388C18.8814 24.716 18.0294 23.84 17.3814 22.76C16.7574 21.656 16.4454 20.444 16.4454 19.124V17.468C16.4454 17.348 16.5054 17.288 16.6254 17.288H20.6574C20.7534 17.288 20.8014 17.348 20.8014 17.468V19.124C20.8014 19.916 21.0654 20.6 21.5934 21.176C22.1214 21.728 22.7574 22.004 23.5014 22.004C24.2454 22.004 24.8814 21.716 25.4094 21.14C25.9374 20.564 26.2014 19.892 26.2014 19.124C26.2014 18.236 25.6254 17.468 24.4734 16.82C24.0894 16.604 23.4894 16.268 22.6734 15.812C21.8574 15.356 21.0894 14.924 20.3694 14.516C19.0494 13.748 18.0654 12.788 17.4174 11.636C16.7934 10.46 16.4814 9.14 16.4814 7.676C16.4814 6.332 16.8054 5.132 17.4534 4.076C18.1014 2.996 18.9534 2.144 20.0094 1.52C21.0894 0.895999 22.2534 0.583999 23.5014 0.583999C24.7734 0.583999 25.9374 0.907999 26.9934 1.556C28.0734 2.18 28.9254 3.032 29.5494 4.112C30.1974 5.168 30.5214 6.356 30.5214 7.676V10.628C30.5214 10.724 30.4734 10.772 30.3774 10.772H26.3454C26.2494 10.772 26.2014 10.724 26.2014 10.628L26.1654 7.676C26.1654 6.836 25.9014 6.152 25.3734 5.624C24.8454 5.096 24.2214 4.832 23.5014 4.832C22.7574 4.832 22.1214 5.12 21.5934 5.696C21.0654 6.248 20.8014 6.908 20.8014 7.676C20.8014 8.468 20.9694 9.128 21.3054 9.656C21.6414 10.184 22.2534 10.688 23.1414 11.168C23.2614 11.24 23.4894 11.372 23.8254 11.564C24.1854 11.732 24.5694 11.936 24.9774 12.176C25.3854 12.392 25.7454 12.584 26.0574 12.752C26.3934 12.92 26.5974 13.028 26.6694 13.076C27.8694 13.748 28.8174 14.576 29.5134 15.56C30.2094 16.52 30.5574 17.708 30.5574 19.124C30.5574 20.492 30.2334 21.728 29.5854 22.832C28.9614 23.912 28.1094 24.776 27.0294 25.424C25.9734 26.048 24.7974 26.36 23.5014 26.36ZM33.2411 26C33.1211 26 33.0611 25.94 33.0611 25.82L33.0971 1.088C33.0971 0.991999 33.1451 0.943999 33.2411 0.943999H37.2731C37.3691 0.943999 37.4171 0.991999 37.4171 1.088L37.4531 25.82C37.4531 25.94 37.4051 26 37.3091 26H33.2411ZM47.2437 26.36C45.9237 26.36 44.7237 26.036 43.6437 25.388C42.5877 24.716 41.7477 23.828 41.1237 22.724C40.4997 21.62 40.1877 20.384 40.1877 19.016L40.2237 7.784C40.2237 6.464 40.5237 5.264 41.1237 4.184C41.7477 3.08 42.5877 2.204 43.6437 1.556C44.7237 0.883999 45.9237 0.547999 47.2437 0.547999C48.5637 0.547999 49.7517 0.872 50.8077 1.52C51.8637 2.168 52.7037 3.044 53.3277 4.148C53.9517 5.228 54.2637 6.44 54.2637 7.784V9.44C54.2637 9.536 54.2157 9.584 54.1197 9.584H50.0877C49.9917 9.584 49.9437 9.536 49.9437 9.44V7.784C49.9437 6.992 49.6797 6.308 49.1517 5.732C48.6477 5.156 48.0117 4.868 47.2437 4.868C46.3797 4.868 45.7197 5.168 45.2637 5.768C44.8077 6.344 44.5797 7.016 44.5797 7.784V19.016C44.5797 19.904 44.8317 20.624 45.3357 21.176C45.8637 21.728 46.4997 22.004 47.2437 22.004C48.0117 22.004 48.6477 21.704 49.1517 21.104C49.6797 20.48 49.9437 19.784 49.9437 19.016V17.36C49.9437 17.264 49.9917 17.216 50.0877 17.216H54.1557C54.2517 17.216 54.2997 17.264 54.2997 17.36V19.016C54.2997 20.384 53.9757 21.62 53.3277 22.724C52.7037 23.828 51.8637 24.716 50.8077 25.388C49.7517 26.036 48.5637 26.36 47.2437 26.36ZM63.5922 26.36C62.2962 26.36 61.1082 26.036 60.0282 25.388C58.9722 24.716 58.1202 23.84 57.4722 22.76C56.8242 21.656 56.5002 20.444 56.5002 19.124L56.5362 7.712C56.5362 6.392 56.8482 5.192 57.4722 4.112C58.1202 3.032 58.9842 2.168 60.0642 1.52C61.1442 0.872 62.3202 0.547999 63.5922 0.547999C64.8882 0.547999 66.0642 0.872 67.1202 1.52C68.1762 2.168 69.0162 3.032 69.6402 4.112C70.2882 5.192 70.6122 6.392 70.6122 7.712L70.6482 19.124C70.6482 20.444 70.3242 21.656 69.6762 22.76C69.0522 23.84 68.2002 24.716 67.1202 25.388C66.0642 26.036 64.8882 26.36 63.5922 26.36ZM63.5922 22.004C64.3122 22.004 64.9362 21.716 65.4642 21.14C66.0162 20.54 66.2922 19.868 66.2922 19.124L66.2562 7.712C66.2562 6.92 66.0042 6.248 65.5002 5.696C64.9962 5.144 64.3602 4.868 63.5922 4.868C62.8482 4.868 62.2122 5.144 61.6842 5.696C61.1562 6.224 60.8922 6.896 60.8922 7.712V19.124C60.8922 19.916 61.1562 20.6 61.6842 21.176C62.2122 21.728 62.8482 22.004 63.5922 22.004ZM73.5653 26C73.4453 26 73.3853 25.94 73.3853 25.82L73.4573 1.088C73.4573 0.991999 73.5053 0.943999 73.6013 0.943999L80.3333 0.907999C81.6533 0.883999 82.8533 1.196 83.9333 1.844C85.0373 2.492 85.9133 3.368 86.5613 4.472C87.2093 5.552 87.5333 6.752 87.5333 8.072V18.404C87.5333 19.796 87.1973 21.068 86.5253 22.22C85.8533 23.348 84.9533 24.248 83.8253 24.92C82.6973 25.592 81.4253 25.94 80.0093 25.964L73.5653 26ZM77.7773 21.572H80.0093C80.8973 21.572 81.6413 21.26 82.2413 20.636C82.8653 20.012 83.1773 19.268 83.1773 18.404V8.036C83.1773 7.268 82.8893 6.608 82.3133 6.056C81.7613 5.48 81.1013 5.204 80.3333 5.228L77.8133 5.264L77.7773 21.572ZM90.5098 26C90.4138 26 90.3658 25.94 90.3658 25.82L90.4018 1.088C90.4018 0.991999 90.4498 0.943999 90.5458 0.943999H102.102C102.198 0.943999 102.246 1.004 102.246 1.124V5.156C102.246 5.252 102.198 5.3 102.102 5.3H94.7218V10.916H102.102C102.198 10.916 102.246 10.964 102.246 11.06L102.282 15.128C102.282 15.224 102.234 15.272 102.138 15.272H94.7218V21.572H102.138C102.234 21.572 102.282 21.632 102.282 21.752V25.856C102.282 25.952 102.234 26 102.138 26H90.5098ZM111.392 26.36C110.096 26.36 108.908 26.036 107.828 25.388C106.772 24.716 105.92 23.84 105.272 22.76C104.648 21.656 104.336 20.444 104.336 19.124V17.468C104.336 17.348 104.396 17.288 104.516 17.288H108.548C108.644 17.288 108.692 17.348 108.692 17.468V19.124C108.692 19.916 108.956 20.6 109.484 21.176C110.012 21.728 110.648 22.004 111.392 22.004C112.136 22.004 112.772 21.716 113.3 21.14C113.828 20.564 114.092 19.892 114.092 19.124C114.092 18.236 113.516 17.468 112.364 16.82C111.98 16.604 111.38 16.268 110.564 15.812C109.748 15.356 108.98 14.924 108.26 14.516C106.94 13.748 105.956 12.788 105.308 11.636C104.684 10.46 104.372 9.14 104.372 7.676C104.372 6.332 104.696 5.132 105.344 4.076C105.992 2.996 106.844 2.144 107.9 1.52C108.98 0.895999 110.144 0.583999 111.392 0.583999C112.664 0.583999 113.828 0.907999 114.884 1.556C115.964 2.18 116.816 3.032 117.44 4.112C118.088 5.168 118.412 6.356 118.412 7.676V10.628C118.412 10.724 118.364 10.772 118.268 10.772H114.236C114.14 10.772 114.092 10.724 114.092 10.628L114.056 7.676C114.056 6.836 113.792 6.152 113.264 5.624C112.736 5.096 112.112 4.832 111.392 4.832C110.648 4.832 110.012 5.12 109.484 5.696C108.956 6.248 108.692 6.908 108.692 7.676C108.692 8.468 108.86 9.128 109.196 9.656C109.532 10.184 110.144 10.688 111.032 11.168C111.152 11.24 111.38 11.372 111.716 11.564C112.076 11.732 112.46 11.936 112.868 12.176C113.276 12.392 113.636 12.584 113.948 12.752C114.284 12.92 114.488 13.028 114.56 13.076C115.76 13.748 116.708 14.576 117.404 15.56C118.1 16.52 118.448 17.708 118.448 19.124C118.448 20.492 118.124 21.728 117.476 22.832C116.852 23.912 116 24.776 114.92 25.424C113.864 26.048 112.688 26.36 111.392 26.36Z" fill="white"/>
</svg>
